<svg width="36" height="36" viewBox="0 0 36 36" fill="none" xmlns="http://www.w3.org/2000/svg">
<rect width="36" height="36" fill="#E5E5E5"/>
<path d="M18 0.291656C8.21992 0.291656 0.291626 8.21995 0.291626 18C0.291626 27.78 8.21992 35.7083 18 35.7083C27.2034 35.7083 34.7659 28.6882 35.6267 19.7099C35.6668 19.292 35.4521 18.8909 35.0822 18.6925C34.7123 18.4941 34.2594 18.5371 33.9334 18.8016C32.1425 20.2549 29.8617 21.125 27.375 21.125C21.622 21.125 16.9583 16.4613 16.9583 10.7083C16.9583 7.29144 18.6024 4.25881 21.147 2.35763C21.4835 2.10625 21.6361 1.67742 21.534 1.27002C21.4319 0.862617 21.0952 0.556359 20.68 0.49329C19.8054 0.360452 18.9104 0.291656 18 0.291656Z" fill="black"/>
</svg>
