<svg width="63" height="53" viewBox="0 0 63 53" fill="none" xmlns="http://www.w3.org/2000/svg">
<path d="M16.43 42.45C14.42 42.45 12.5 42.12 10.67 41.46C8.84 40.8 7.265 39.825 5.945 38.535L8.105 34.62C9.515 35.76 10.895 36.6 12.245 37.14C13.625 37.68 14.945 37.95 16.205 37.95C17.375 37.95 18.305 37.74 18.995 37.32C19.715 36.9 20.075 36.27 20.075 35.43C20.075 34.86 19.88 34.425 19.49 34.125C19.1 33.795 18.53 33.51 17.78 33.27C17.06 33.03 16.175 32.76 15.125 32.46C13.385 31.89 11.93 31.335 10.76 30.795C9.59 30.255 8.705 29.58 8.105 28.77C7.535 27.93 7.25 26.865 7.25 25.575C7.25 24.015 7.64 22.68 8.42 21.57C9.23 20.43 10.34 19.545 11.75 18.915C13.19 18.285 14.87 17.97 16.79 17.97C18.47 17.97 20.06 18.24 21.56 18.78C23.06 19.29 24.425 20.13 25.655 21.3L23.225 25.125C22.025 24.195 20.885 23.52 19.805 23.1C18.725 22.65 17.63 22.425 16.52 22.425C15.89 22.425 15.29 22.5 14.72 22.65C14.18 22.8 13.73 23.055 13.37 23.415C13.04 23.745 12.875 24.225 12.875 24.855C12.875 25.425 13.025 25.875 13.325 26.205C13.655 26.505 14.135 26.775 14.765 27.015C15.425 27.255 16.22 27.525 17.15 27.825C19.04 28.365 20.63 28.92 21.92 29.49C23.24 30.06 24.23 30.765 24.89 31.605C25.55 32.415 25.88 33.54 25.88 34.98C25.88 37.32 25.025 39.15 23.315 40.47C21.605 41.79 19.31 42.45 16.43 42.45ZM28.5413 30.21C28.5413 27.93 28.9913 25.875 29.8913 24.045C30.7913 22.185 32.0363 20.715 33.6263 19.635C35.2163 18.555 37.0313 18.015 39.0713 18.015C40.8113 18.015 42.3713 18.45 43.7513 19.32C45.1613 20.16 46.2563 21.24 47.0363 22.56V9.15H53.0663V35.25C53.0663 35.88 53.1713 36.33 53.3813 36.6C53.5913 36.87 53.9513 37.035 54.4613 37.095V42C53.4113 42.21 52.5563 42.315 51.8963 42.315C50.8163 42.315 49.9163 42.045 49.1963 41.505C48.5063 40.965 48.1163 40.26 48.0263 39.39L47.9363 37.905C47.0663 39.375 45.8813 40.5 44.3813 41.28C42.9113 42.06 41.3663 42.45 39.7463 42.45C38.1263 42.45 36.6263 42.135 35.2463 41.505C33.8963 40.875 32.7113 40.005 31.6913 38.895C30.7013 37.785 29.9213 36.495 29.3513 35.025C28.8113 33.525 28.5413 31.92 28.5413 30.21ZM47.0363 33.36V27.735C46.7363 26.865 46.2563 26.085 45.5963 25.395C44.9363 24.705 44.2013 24.165 43.3913 23.775C42.5813 23.355 41.7713 23.145 40.9613 23.145C40.0313 23.145 39.1913 23.34 38.4413 23.73C37.6913 24.12 37.0313 24.645 36.4613 25.305C35.9213 25.965 35.5013 26.73 35.2013 27.6C34.9313 28.47 34.7963 29.385 34.7963 30.345C34.7963 31.305 34.9463 32.22 35.2463 33.09C35.5763 33.93 36.0413 34.665 36.6413 35.295C37.2413 35.925 37.9313 36.42 38.7113 36.78C39.5213 37.14 40.3913 37.32 41.3213 37.32C41.8913 37.32 42.4613 37.23 43.0313 37.05C43.6313 36.84 44.1863 36.57 44.6963 36.24C45.2363 35.88 45.7013 35.46 46.0913 34.98C46.5113 34.47 46.8263 33.93 47.0363 33.36Z" fill="black"/>
<line y1="30" x2="63" y2="30" stroke="black" stroke-width="2"/>
</svg>
