<svg width="50" height="50" viewBox="0 0 50 50" fill="none" xmlns="http://www.w3.org/2000/svg">
<g id="Outline/Interface/Search">
<path id="Icon" fill-rule="evenodd" clip-rule="evenodd" d="M29.9691 32.1783C24.4477 36.6005 16.3655 36.2524 11.2472 31.1341C5.75548 25.6424 5.75548 16.7385 11.2472 11.2467C16.739 5.75499 25.6429 5.75499 31.1346 11.2467C36.2529 16.365 36.601 24.4472 32.1788 29.9686L42.9197 40.7095C43.5299 41.3197 43.5299 42.309 42.9197 42.9192C42.3095 43.5294 41.3202 43.5294 40.71 42.9192L29.9691 32.1783ZM13.4569 28.9244C9.18558 24.653 9.18558 17.7278 13.4569 13.4564C17.7283 9.18509 24.6535 9.18509 28.9249 13.4564C33.1931 17.7247 33.1963 24.6429 28.9343 28.915C28.9311 28.9181 28.928 28.9212 28.9249 28.9244C28.9217 28.9275 28.9186 28.9306 28.9155 28.9338C24.6434 33.1958 17.7252 33.1926 13.4569 28.9244Z" fill="black"/>
</g>
</svg>
